<?xml version="1.0" standalone="no"?>
<!DOCTYPE svg PUBLIC "-//W3C//DTD SVG 20010904//EN"
 "http://www.w3.org/TR/2001/REC-SVG-20010904/DTD/svg10.dtd">
<svg version="1.0" xmlns="http://www.w3.org/2000/svg"
 width="512.000000pt" height="512.000000pt" viewBox="0 0 512.000000 512.000000"
 preserveAspectRatio="xMidYMid meet">
<metadata>
Created by potrace 1.14, written by Peter Selinger 2001-2017
</metadata>
<g transform="translate(0.000000,512.000000) scale(0.100000,-0.100000)"
fill="#000000" stroke="none">
<path d="M1712 5106 c-41 -22 -209 -288 -233 -368 -29 -94 -23 -178 19 -259
l31 -59 -32 -62 -32 -61 -3 -317 -3 -318 -88 -4 c-141 -7 -232 -63 -285 -177
-20 -44 -21 -62 -24 -533 l-3 -486 -187 -4 c-165 -3 -192 -5 -233 -24 -66 -31
-114 -78 -146 -142 l-28 -57 -3 -817 -2 -818 -191 0 c-207 0 -235 -6 -257 -55
-15 -32 -15 -79 -1 -147 39 -187 200 -348 387 -387 75 -16 4249 -16 4324 0
187 39 348 200 387 387 14 68 14 115 -1 147 -22 49 -50 55 -257 55 l-191 0 -2
818 -3 817 -28 57 c-32 64 -80 111 -146 142 -41 19 -68 21 -233 24 l-187 4 -3
486 c-3 471 -4 489 -24 533 -53 114 -144 170 -285 177 l-88 4 -3 318 -3 317
-32 61 -32 62 32 62 c29 55 32 69 31 147 -1 112 -19 158 -134 331 -105 159
-135 180 -204 149 -41 -19 -211 -286 -237 -371 -29 -94 -23 -178 19 -259 l31
-59 -32 -62 -32 -61 -3 -319 -3 -318 -99 0 -99 0 -3 318 -3 319 -32 61 -32 62
32 62 c29 55 32 69 31 147 -1 112 -19 158 -134 331 -105 159 -135 180 -204
149 -41 -19 -211 -286 -237 -371 -29 -94 -23 -178 19 -259 l31 -59 -32 -62
-32 -61 -3 -319 -3 -318 -99 0 -99 0 -3 318 -3 319 -32 61 -32 62 31 59 c42
81 48 165 19 259 -26 85 -196 352 -237 371 -32 14 -63 14 -92 -3z m88 -326
c39 -61 59 -114 60 -158 0 -46 -54 -102 -100 -102 -23 0 -41 10 -66 34 -38 38
-43 73 -20 138 16 43 74 138 86 138 4 0 22 -23 40 -50z m800 0 c39 -61 59
-114 60 -158 0 -46 -54 -102 -100 -102 -23 0 -41 10 -66 34 -38 38 -43 73 -20
138 16 43 74 138 86 138 4 0 22 -23 40 -50z m800 0 c39 -61 59 -114 60 -158 0
-46 -54 -102 -100 -102 -23 0 -41 10 -66 34 -38 38 -43 73 -20 138 16 43 74
138 86 138 4 0 22 -23 40 -50z m-1591 -474 c48 -25 51 -44 51 -356 l0 -290
-100 0 -100 0 0 293 c1 312 3 326 51 353 31 17 64 17 98 0z m800 0 c48 -25 51
-44 51 -356 l0 -290 -100 0 -100 0 0 293 c1 312 3 326 51 353 31 17 64 17 98
0z m800 0 c48 -25 51 -44 51 -356 l0 -290 -100 0 -100 0 0 293 c1 312 3 326
51 353 31 17 64 17 98 0z m-1503 -1277 c16 -5 50 -30 76 -55 71 -66 126 -87
228 -88 103 0 152 19 233 92 89 81 145 81 234 0 79 -72 129 -91 233 -92 103 0
152 19 233 92 89 81 145 81 234 0 79 -72 129 -91 233 -92 96 0 150 18 213 74
l37 32 0 -266 0 -266 -1300 0 -1300 0 0 266 0 266 36 -32 c62 -54 118 -73 214
-74 102 0 155 20 228 88 68 64 110 78 168 55z m-800 -1200 c16 -5 50 -30 76
-55 73 -68 126 -88 228 -88 104 1 154 20 233 92 89 81 145 81 234 0 81 -73
130 -92 233 -92 104 1 154 20 233 92 89 81 145 81 234 0 81 -73 130 -92 233
-92 104 1 154 20 233 92 89 81 145 81 234 0 81 -73 130 -92 233 -92 104 1 154
20 233 92 89 81 145 81 234 0 81 -73 130 -92 233 -92 96 1 152 20 214 74 l36
32 0 -266 0 -266 -760 0 c-639 0 -765 -2 -789 -14 -66 -35 -66 -137 0 -172 24
-12 150 -14 789 -14 l760 0 0 -230 0 -230 -1900 0 -1900 0 0 230 0 230 760 0
c567 0 766 3 785 12 29 13 55 55 55 88 0 33 -26 75 -55 88 -19 9 -218 12 -785
12 l-760 0 0 210 0 210 44 0 c80 0 169 35 229 90 75 69 114 82 173 59z m3794
-1438 c0 -5 -15 -30 -33 -57 -42 -60 -112 -109 -177 -123 -36 -8 -674 -11
-2139 -11 -2291 0 -2141 -4 -2228 60 -38 28 -103 111 -103 132 0 4 1053 8
2340 8 1362 0 2340 -4 2340 -9z"/>
<path d="M2511 1246 c-87 -48 -50 -186 49 -186 51 0 100 49 100 99 0 75 -83
124 -149 87z"/>
</g>
</svg>
